<?xml version="1.0" encoding="UTF-8"?>
<svg width="100px" height="100px" viewBox="0 0 100 100" version="1.1" xmlns="http://www.w3.org/2000/svg" xmlns:xlink="http://www.w3.org/1999/xlink">
    <title>Frontend Development Icon</title>
    <g id="frontend-icon" stroke="none" stroke-width="1" fill="none" fill-rule="evenodd">
        <rect id="browser" stroke="#000000" stroke-width="2" x="10" y="10" width="80" height="70" rx="3"></rect>
        <rect id="browser-header" fill="#F5F5F5" x="10" y="10" width="80" height="15" rx="3"></rect>
        <circle id="button-1" fill="#FF5252" cx="20" cy="17.5" r="3"></circle>
        <circle id="button-2" fill="#FFEB3B" cx="30" cy="17.5" r="3"></circle>
        <circle id="button-3" fill="#4CAF50" cx="40" cy="17.5" r="3"></circle>
        <rect id="address-bar" fill="#FFFFFF" stroke="#E0E0E0" x="50" y="12.5" width="30" height="10" rx="5"></rect>
        
        <!-- Code Elements -->
        <rect id="code-area" fill="#263238" x="15" y="30" width="70" height="45" rx="2"></rect>
        
        <!-- HTML Tags -->
        <text font-family="monospace" font-size="6" fill="#FF5722" x="20" y="40">&lt;div&gt;</text>
        <text font-family="monospace" font-size="6" fill="#FF5722" x="25" y="50">&lt;h1&gt;</text>
        <text font-family="monospace" font-size="6" fill="#FFFFFF" x="40" y="50">Hello</text>
        <text font-family="monospace" font-size="6" fill="#FF5722" x="60" y="50">&lt;/h1&gt;</text>
        <text font-family="monospace" font-size="6" fill="#FF5722" x="25" y="60">&lt;p&gt;</text>
        <text font-family="monospace" font-size="6" fill="#FFFFFF" x="40" y="60">World</text>
        <text font-family="monospace" font-size="6" fill="#FF5722" x="60" y="60">&lt;/p&gt;</text>
        <text font-family="monospace" font-size="6" fill="#FF5722" x="20" y="70">&lt;/div&gt;</text>
        
        <!-- Cursor -->
        <rect id="cursor" fill="#FFFFFF" x="65" y="59" width="1" height="6"></rect>
        
        <!-- Brackets -->
        <path id="bracket-left" stroke="#2196F3" stroke-width="1" d="M85,85 L90,90 L95,85"></path>
        <path id="bracket-right" stroke="#2196F3" stroke-width="1" d="M5,85 L10,90 L15,85"></path>
    </g>
</svg>
