<?xml version="1.0" encoding="UTF-8"?>
<svg width="100px" height="100px" viewBox="0 0 100 100" version="1.1" xmlns="http://www.w3.org/2000/svg" xmlns:xlink="http://www.w3.org/1999/xlink">
    <title>GitHub Logo</title>
    <g id="github-logo" stroke="none" stroke-width="1" fill="none" fill-rule="evenodd">
        <path d="M50,10 C27.5,10 10,27.5 10,50 C10,68 21.5,82.5 38,87.5 C40,87.8 40.8,86.5 40.8,85.5 C40.8,84.5 40.8,82 40.8,79 C30,81 27.5,74 27.5,74 C25.5,69.5 23,68.5 23,68.5 C19.5,66 23.5,66 23.5,66 C27.5,66.3 29.5,70 29.5,70 C33,76 38.5,74.5 41,73.5 C41.3,71 42.5,69.5 43.5,68.5 C35,67.5 26,64 26,48.5 C26,44 27.5,40.5 29.5,38 C29,37 28,33.5 30,29 C30,29 33.5,28 41,33 C44,32 47,31.5 50,31.5 C53,31.5 56,32 59,33 C66.5,28 70,29 70,29 C72,33.5 71,37 70.5,38 C72.5,40.5 74,44 74,48.5 C74,64 65,67.5 56.5,68.5 C58,69.8 59,72 59,75.5 C59,80.5 59,84 59,85.5 C59,86.5 59.8,87.8 62,87.5 C78.5,82.5 90,68 90,50 C90,27.5 72.5,10 50,10 Z" fill="#181717"></path>
    </g>
</svg>
