<?xml version="1.0" encoding="UTF-8"?>
<svg width="100px" height="100px" viewBox="0 0 100 100" version="1.1" xmlns="http://www.w3.org/2000/svg" xmlns:xlink="http://www.w3.org/1999/xlink">
    <title>Mobile Development Icon</title>
    <g id="mobile-dev-icon" stroke="none" stroke-width="1" fill="none" fill-rule="evenodd">
        <rect id="phone-1" stroke="#000000" stroke-width="2" x="20" y="10" width="30" height="70" rx="5"></rect>
        <rect id="phone-2" stroke="#000000" stroke-width="2" x="55" y="20" width="25" height="60" rx="5"></rect>
        
        <!-- Phone 1 Screen -->
        <rect id="screen-1" fill="#FFFFFF" x="23" y="15" width="24" height="50" rx="1"></rect>
        <rect id="header-1" fill="#9C27B0" x="23" y="15" width="24" height="8" rx="1"></rect>
        <circle id="avatar-1" fill="#E0E0E0" cx="28" cy="19" r="2"></circle>
        <rect id="title-1" fill="#FFFFFF" x="33" y="18" width="10" height="2" rx="1"></rect>
        
        <rect id="card-1-1" fill="#F5F5F5" x="25" y="27" width="20" height="8" rx="2"></rect>
        <rect id="card-1-2" fill="#F5F5F5" x="25" y="38" width="20" height="8" rx="2"></rect>
        <rect id="card-1-3" fill="#F5F5F5" x="25" y="49" width="20" height="8" rx="2"></rect>
        
        <!-- Phone 1 Navigation -->
        <rect id="nav-1" fill="#E0E0E0" x="23" y="65" width="24" height="8" rx="1"></rect>
        <circle id="nav-1-1" fill="#9E9E9E" cx="30" cy="69" r="2"></circle>
        <circle id="nav-1-2" fill="#9E9E9E" cx="35" cy="69" r="2"></circle>
        <circle id="nav-1-3" fill="#9E9E9E" cx="40" cy="69" r="2"></circle>
        
        <!-- Phone 1 Home Button -->
        <circle id="home-button-1" stroke="#000000" stroke-width="1" cx="35" cy="78" r="2"></circle>
        
        <!-- Phone 2 Screen -->
        <rect id="screen-2" fill="#FFFFFF" x="58" y="25" width="19" height="40" rx="1"></rect>
        <rect id="header-2" fill="#2196F3" x="58" y="25" width="19" height="6" rx="1"></rect>
        <circle id="avatar-2" fill="#E0E0E0" cx="62" cy="28" r="1.5"></circle>
        <rect id="title-2" fill="#FFFFFF" x="66" y="27" width="8" height="1.5" rx="0.75"></rect>
        
        <rect id="card-2-1" fill="#F5F5F5" x="60" y="34" width="15" height="6" rx="1"></rect>
        <rect id="card-2-2" fill="#F5F5F5" x="60" y="43" width="15" height="6" rx="1"></rect>
        <rect id="card-2-3" fill="#F5F5F5" x="60" y="52" width="15" height="6" rx="1"></rect>
        
        <!-- Phone 2 Navigation -->
        <rect id="nav-2" fill="#E0E0E0" x="58" y="65" width="19" height="6" rx="1"></rect>
        <circle id="nav-2-1" fill="#9E9E9E" cx="63" cy="68" r="1.5"></circle>
        <circle id="nav-2-2" fill="#9E9E9E" cx="67.5" cy="68" r="1.5"></circle>
        <circle id="nav-2-3" fill="#9E9E9E" cx="72" cy="68" r="1.5"></circle>
        
        <!-- Phone 2 Home Button -->
        <circle id="home-button-2" stroke="#000000" stroke-width="1" cx="67.5" cy="75" r="1.5"></circle>
        
        <!-- Code Elements -->
        <path id="code-1" stroke="#4CAF50" stroke-width="1" d="M10,40 L15,40"></path>
        <path id="code-2" stroke="#4CAF50" stroke-width="1" d="M10,45 L18,45"></path>
        <path id="code-3" stroke="#4CAF50" stroke-width="1" d="M10,50 L13,50"></path>
        
        <path id="code-4" stroke="#FF5722" stroke-width="1" d="M85,35 L90,35"></path>
        <path id="code-5" stroke="#FF5722" stroke-width="1" d="M85,40 L93,40"></path>
        <path id="code-6" stroke="#FF5722" stroke-width="1" d="M85,45 L88,45"></path>
    </g>
</svg>
