<?xml version="1.0" encoding="UTF-8"?>
<svg width="100px" height="100px" viewBox="0 0 100 100" version="1.1" xmlns="http://www.w3.org/2000/svg" xmlns:xlink="http://www.w3.org/1999/xlink">
    <title>Node.js Logo</title>
    <g id="nodejs-logo" stroke="none" stroke-width="1" fill="none" fill-rule="evenodd">
        <path d="M50,10 L90,30 L90,70 L50,90 L10,70 L10,30 Z" fill="#8CC84B"></path>
        <path d="M50,50 L50,90 L90,70 L90,30 Z" fill="#689F38" opacity="0.8"></path>
        <path d="M65,40 C65,35 60,30 50,30 C40,30 35,35 35,40 C35,50 65,45 65,55 C65,60 60,65 50,65 C40,65 35,60 35,55" stroke="#FFFFFF" stroke-width="4" stroke-linecap="round"></path>
        <line x1="35" y1="45" x2="35" y2="30" stroke="#FFFFFF" stroke-width="4" stroke-linecap="round"></line>
        <line x1="65" y1="50" x2="65" y2="65" stroke="#FFFFFF" stroke-width="4" stroke-linecap="round"></line>
    </g>
</svg>
