<?xml version="1.0" encoding="UTF-8"?>
<svg width="400px" height="400px" viewBox="0 0 400 400" version="1.1" xmlns="http://www.w3.org/2000/svg" xmlns:xlink="http://www.w3.org/1999/xlink">
    <title>Profile Picture</title>
    <g id="profile-picture" stroke="none" stroke-width="1" fill="none" fill-rule="evenodd">
        <!-- Background -->
        <circle id="background" fill="#E3F2FD" cx="200" cy="200" r="200"></circle>
        
        <!-- Abstract Background Elements -->
        <path id="shape-1" fill="#BBDEFB" opacity="0.7" d="M0,200 C0,89.54 89.54,0 200,0 C310.46,0 400,89.54 400,200 C400,310.46 310.46,400 200,400 C89.54,400 0,310.46 0,200 Z M50,200 C50,282.84 117.16,350 200,350 C282.84,350 350,282.84 350,200 C350,117.16 282.84,50 200,50 C117.16,50 50,117.16 50,200 Z"></path>
        <path id="shape-2" fill="#90CAF9" opacity="0.5" d="M320,120 C320,120 350,150 350,200 C350,250 320,280 320,280 L280,280 C280,280 310,250 310,200 C310,150 280,120 280,120 L320,120 Z"></path>
        <path id="shape-3" fill="#90CAF9" opacity="0.5" d="M80,120 C80,120 50,150 50,200 C50,250 80,280 80,280 L120,280 C120,280 90,250 90,200 C90,150 120,120 120,120 L80,120 Z"></path>
        
        <!-- Person Silhouette -->
        <circle id="head" fill="#455A64" cx="200" cy="150" r="60"></circle>
        <path id="body" fill="#455A64" d="M140,220 L260,220 L280,350 L120,350 Z"></path>
        
        <!-- Glasses -->
        <rect id="glasses-frame" stroke="#263238" stroke-width="4" x="150" y="140" width="100" height="30" rx="15"></rect>
        <rect id="glasses-left" stroke="#263238" stroke-width="4" fill="#FFFFFF" opacity="0.2" x="155" y="145" width="40" height="20" rx="10"></rect>
        <rect id="glasses-right" stroke="#263238" stroke-width="4" fill="#FFFFFF" opacity="0.2" x="205" y="145" width="40" height="20" rx="10"></rect>
        
        <!-- Code Elements -->
        <path id="bracket-left" stroke="#64B5F6" stroke-width="4" d="M100,100 L80,120 L100,140"></path>
        <path id="bracket-right" stroke="#64B5F6" stroke-width="4" d="M300,100 L320,120 L300,140"></path>
        
        <!-- Tech Icons -->
        <circle id="icon-1" fill="#FFC107" cx="120" cy="300" r="15"></circle>
        <text font-family="monospace" font-size="16" fill="#FFFFFF" x="114" y="305">JS</text>
        
        <circle id="icon-2" fill="#4CAF50" cx="160" cy="320" r="15"></circle>
        <text font-family="monospace" font-size="16" fill="#FFFFFF" x="154" y="325">N</text>
        
        <circle id="icon-3" fill="#F44336" cx="200" cy="330" r="15"></circle>
        <text font-family="monospace" font-size="16" fill="#FFFFFF" x="194" y="335">A</text>
        
        <circle id="icon-4" fill="#2196F3" cx="240" cy="320" r="15"></circle>
        <text font-family="monospace" font-size="16" fill="#FFFFFF" x="234" y="325">R</text>
        
        <circle id="icon-5" fill="#9C27B0" cx="280" cy="300" r="15"></circle>
        <text font-family="monospace" font-size="16" fill="#FFFFFF" x="274" y="305">C</text>
    </g>
</svg>
