<?xml version="1.0" encoding="UTF-8"?>
<svg width="100px" height="100px" viewBox="0 0 100 100" version="1.1" xmlns="http://www.w3.org/2000/svg" xmlns:xlink="http://www.w3.org/1999/xlink">
    <title>Server Interactions Icon</title>
    <g id="server-icon" stroke="none" stroke-width="1" fill="none" fill-rule="evenodd">
        <rect id="server-1" stroke="#000000" stroke-width="2" fill="#E0E0E0" x="20" y="15" width="60" height="15" rx="2"></rect>
        <rect id="server-2" stroke="#000000" stroke-width="2" fill="#E0E0E0" x="20" y="40" width="60" height="15" rx="2"></rect>
        <rect id="server-3" stroke="#000000" stroke-width="2" fill="#E0E0E0" x="20" y="65" width="60" height="15" rx="2"></rect>
        
        <circle id="light-1" fill="#4CAF50" cx="30" cy="22.5" r="3"></circle>
        <circle id="light-2" fill="#FFEB3B" cx="30" cy="47.5" r="3"></circle>
        <circle id="light-3" fill="#4CAF50" cx="30" cy="72.5" r="3"></circle>
        
        <rect id="slot-1-1" fill="#9E9E9E" x="40" y="20" width="30" height="2" rx="1"></rect>
        <rect id="slot-1-2" fill="#9E9E9E" x="40" y="25" width="30" height="2" rx="1"></rect>
        
        <rect id="slot-2-1" fill="#9E9E9E" x="40" y="45" width="30" height="2" rx="1"></rect>
        <rect id="slot-2-2" fill="#9E9E9E" x="40" y="50" width="30" height="2" rx="1"></rect>
        
        <rect id="slot-3-1" fill="#9E9E9E" x="40" y="70" width="30" height="2" rx="1"></rect>
        <rect id="slot-3-2" fill="#9E9E9E" x="40" y="75" width="30" height="2" rx="1"></rect>
        
        <path id="connection" stroke="#2196F3" stroke-width="2" stroke-dasharray="3,2" d="M50,15 L50,5 C50,5 70,5 70,20 C70,35 90,35 90,35"></path>
        <path id="pen" fill="#2196F3" d="M85,35 L95,35 L90,40 Z"></path>
    </g>
</svg>
