<?xml version="1.0" encoding="UTF-8"?>
<svg width="100px" height="100px" viewBox="0 0 100 100" version="1.1" xmlns="http://www.w3.org/2000/svg" xmlns:xlink="http://www.w3.org/1999/xlink">
    <title>SolidJS Logo</title>
    <g id="solidjs-logo" stroke="none" stroke-width="1" fill="none" fill-rule="evenodd">
        <path d="M50,10 C70,10 85,25 85,50 C85,75 70,90 50,90 C30,90 15,75 15,50 C15,25 30,10 50,10 Z" fill="#2C4F7C"></path>
        <path d="M50,20 C65,20 75,30 75,50 C75,70 65,80 50,80 C35,80 25,70 25,50 C25,30 35,20 50,20 Z" fill="#FFFFFF"></path>
        <path d="M50,30 C60,30 65,35 65,50 C65,65 60,70 50,70 C40,70 35,65 35,50 C35,35 40,30 50,30 Z" fill="#2C4F7C"></path>
    </g>
</svg>
