<?xml version="1.0" encoding="UTF-8"?>
<svg width="100px" height="100px" viewBox="0 0 100 100" version="1.1" xmlns="http://www.w3.org/2000/svg" xmlns:xlink="http://www.w3.org/1999/xlink">
    <title>Web Design Icon</title>
    <g id="web-design-icon" stroke="none" stroke-width="1" fill="none" fill-rule="evenodd">
        <rect id="monitor" stroke="#000000" stroke-width="2" x="10" y="10" width="80" height="60" rx="2"></rect>
        <rect id="screen" fill="#FFFFFF" x="15" y="15" width="70" height="45" rx="1"></rect>
        <rect id="header" fill="#E0E0E0" x="15" y="15" width="70" height="10" rx="1"></rect>
        <circle id="button-1" fill="#FF5252" cx="20" cy="20" r="2"></circle>
        <circle id="button-2" fill="#FFEB3B" cx="26" cy="20" r="2"></circle>
        <circle id="button-3" fill="#4CAF50" cx="32" cy="20" r="2"></circle>
        <rect id="content-1" fill="#E0E0E0" x="20" y="30" width="20" height="20" rx="1"></rect>
        <rect id="content-2" fill="#E0E0E0" x="45" y="30" width="35" height="5" rx="1"></rect>
        <rect id="content-3" fill="#E0E0E0" x="45" y="40" width="35" height="5" rx="1"></rect>
        <rect id="content-4" fill="#E0E0E0" x="45" y="50" width="25" height="5" rx="1"></rect>
        <rect id="stand" fill="#000000" x="45" y="70" width="10" height="15" rx="1"></rect>
        <rect id="base" fill="#000000" x="35" y="85" width="30" height="5" rx="2"></rect>
        <path id="lightbulb" fill="#FFEB3B" d="M25,65 C25,60 30,55 30,55 C30,55 35,60 35,65 C35,70 25,70 25,65 Z"></path>
    </g>
</svg>
